<svg version="1.0" xmlns="http://www.w3.org/2000/svg">
  <defs>


    <symbol id="icon-envelope">
      <path d="M14.5 0H1.50001C.672854 0 0 .672853 0 1.50001V10.5c0 .8271.672854 1.5 1.50001 1.5H14.5c.8271 0 1.5-.6729 1.5-1.5V1.50001C16 .672853 15.3271 0 14.5 0Zm0 .999994c.0679 0 .1325.014096.1916.038706L8 6.83838 1.30833 1.0387c.05909-.02458.12371-.038706.19165-.038706H14.5ZM14.5 11H1.50001c-.27587 0-.500014-.2241-.500014-.5V2.09521L7.67236 7.87792c.09425.08152.21094.12207.32764.12207s.23339-.04051.32764-.12207L15 2.09521V10.5c0 .2759-.2241.5-.5.5Z"/>
    </symbol>

    <symbol id="icon-smartphone" viewBox="0 0 10 16">
      <path d="M8.5 0h-7C.672848 0 0 .672848 0 1.5v13c0 .8272.672848 1.5 1.5 1.5h7c.82715 0 1.5-.6728 1.5-1.5v-13C10 .672848 9.32715 0 8.5 0Zm-7 1h7c.27588 0 .5.22412.5.5V12H1V1.5c0-.27588.22412-.5.5-.5Zm7 14h-7c-.27588 0-.5-.2241-.5-.5V13h8v1.5c0 .2759-.22412.5-.5.5Z"/>
      <path d="M2.35355 13.7389c.19527.1824.19527.478 0 .6603-.19527.1824-.51183.1824-.7071 0-.19527-.1823-.19527-.4779 0-.6603.19527-.1823.51183-.1823.7071 0Z"/>
    </symbol>

    <symbol id="icon-antenna" viewBox="0 0 70 70">
      <path d="M67.3163 48.3385 48.8468 29.7337l2.0498-10.0964c.529.2065 1.0913.3144 1.659.3185h.014c2.6081.0308 4.7473-2.0584 4.7783-4.6665.0309-2.6081-2.0585-4.7473-4.6666-4.7782-2.6081-.0308-4.7473 2.0584-4.7782 4.6665-.0066.5581.0857 1.1129.2729 1.6387l-10.85 1.3242L19.6276.35c-.2171-.221521-.5135-.34752083-.8236-.35-.3063.00160417-.5996.123521-.8167.3395l-3.3087 3.29c-.4554.45558-.4554 1.19408 0 1.64967l1.7804 1.806C9.56162 19.7681 11.8019 35.4741 21.9703 45.7228c.0933.0893.2015.1615.3197.2135-.0735.3948-.1119.7954-.1144 1.197v13.5334H8.17562c-3.22.0038-5.82954 2.6133-5.83333 5.8333v2.3333c0 .6443.52237 1.1667 1.16666 1.1667H57.1756c.6443 0 1.1667-.5224 1.1667-1.1667V66.5c-.0038-3.22-2.6133-5.8295-5.8333-5.8333h-14v-5.9979c2.1931.46 4.4277.6945 6.6686.7 5.3772-.0058 10.6688-1.3463 15.4-3.9013l1.7897 1.8002c.2171.2215.5135.3475.8237.35.3062-.0016.5995-.1236.8166-.3395l3.3087-3.29c.4554-.4556.4554-1.1941 0-1.6497ZM50.9246 13.6348c.9137-.9088 2.3911-.9047 3.2998.0089.9088.9137.9047 2.3911-.0089 3.2998-.4374.435-1.0291.6791-1.646.679h-.007c-1.2886-.0067-2.328-1.0567-2.3213-2.3454.0033-.6169.2506-1.2072.6879-1.6423h-.0045Zm-2.7463 7.6662-1.309 6.4435-2.5713-2.5865 3.8803-3.857Zm-1.3253-1.9728-4.2 4.1755-3.2492-3.2667 7.4492-.9088ZM52.509 63c1.933 0 3.5 1.567 3.5 3.5v1.1667H4.67562V66.5c0-1.933 1.56698-3.5 3.5-3.5H52.509Zm-16.3334-4.6667v2.3334H24.509v-2.3334h11.6666ZM24.509 56v-8.8667C24.509 44.303 27.1258 42 30.3423 42c3.2165 0 5.8333 2.303 5.8333 5.1333V56H24.509Zm14-3.71v-5.1567c0-4.1171-3.6634-7.4666-8.1667-7.4666-2.9117-.0447-5.6344 1.4374-7.1773 3.9071-8.8763-9.3489-10.8751-23.2863-4.9845-34.75307L58.872 49.7455c-6.2834 3.1964-13.4863 4.0963-20.363 2.5445Zm24.6948-1.4957L61.56 49.1412 18.7923 6.11567l-1.6508-1.65434 1.6508-1.645L36.15 20.272c.0081 0 .0128.0152.021.021l28.6883 28.8563-1.6555 1.645Z" fill="var(--testimonials-list-item-thumbnail-icon-main-color)"/>
      <path d="M30.3528 44.3333h-.0105c-1.933-.0029-3.5023 1.5617-3.5053 3.4948-.0029 1.933 1.5618 3.5023 3.4948 3.5052h.0105c1.933.0029 3.5023-1.5617 3.5052-3.4947.003-1.9331-1.5617-3.5024-3.4947-3.5053Zm.8167 4.3272c-.2197.2184-.5173.3407-.8272.3395-.6443-.0034-1.1639-.5284-1.1606-1.1727.0017-.3084.1253-.6036.3439-.8211.2172-.216.5104-.3379.8167-.3395.6443.0033 1.1639.5283 1.1605 1.1726-.0016.3084-.1252.6036-.3438.8212h.0105Z" fill="var(--testimonials-list-item-thumbnail-icon-accent-color)"/>
    </symbol>

    <symbol id="icon-clock">
      <path d="M68.4614 33.4715C68.4576 14.9819 53.4656-.00373771 34.9754 7e-7 16.4858.0037391 1.50017 14.9963 1.50391 33.4859c.0032 14.5643 9.42129 27.4554 23.29559 31.8854.1324.0417.2702.063.4086.0625.2638-.0005.5223-.071.7492-.2051.2954-.1746.5159-.4523.6195-.7797l8.4547-26.7969c2.3114-.0117 4.1753-1.8953 4.163-4.2062-.0118-2.3114-1.8948-4.1753-4.2062-4.1635-.6217.0026-1.2353.1458-1.7939.4187L22.0251 18.5302c-.5544-.5351-1.4372-.5196-1.9723.0342-.5223.541-.5223 1.3976 0 1.9386l11.1634 11.1762c-.8566 1.7485-.3669 3.8591 1.1733 5.0511l-8.0557 25.5344C8.41354 56.4002.261689 38.7405 6.12618 22.8203 11.9907 6.90002 29.6503-1.25183 45.5706 4.61266 61.4909 10.4771 69.6427 28.1374 63.7782 44.0571c-2.8652 7.778-8.7521 14.0681-16.3234 17.4418l-.8706-4.1c-.1591-.7535-.8998-1.2353-1.6534-1.0756-.2377.0508-.4582.1624-.6398.3242l-8.3932 7.4934c-.5758.5121-.627 1.3938-.1143 1.9696.1666.1869.3802.3257.6195.4021l10.7158 3.4201c.7333.2355 1.5189-.1677 1.7544-.9015.0748-.2318.0871-.4785.0369-.7167l-.8556-4.023c12.3907-5.2237 20.4357-17.3735 20.4069-30.82Zm-33.4785-1.3949c.7701 0 1.395.6248 1.395 1.3949 0 .7707-.6249 1.395-1.395 1.395-.7706 0-1.3949-.6243-1.3949-1.395 0-.7701.6243-1.3949 1.3949-1.3949Zm4.5945 32.515 4.7777-4.2618 1.3186 6.2132-6.0963-1.9514Z" fill="var(--testimonials-list-item-thumbnail-icon-main-color)"/>
      <path d="M33.5879 6.96732v2.78991c0 .77067.6243 1.39497 1.3949 1.39497.7702 0 1.395-.6243 1.395-1.39497V6.96732c0-.77012-.6248-1.39496-1.395-1.39496-.7706 0-1.3949.62484-1.3949 1.39496ZM8.4787 32.0765c-.77065 0-1.39496.6249-1.39496 1.395 0 .7706.62431 1.395 1.39496 1.395h2.7899c.7707 0 1.395-.6244 1.395-1.395 0-.7701-.6243-1.395-1.395-1.395H8.4787ZM61.4865 34.8665c.7707 0 1.395-.6244 1.395-1.395 0-.7701-.6243-1.395-1.395-1.395h-2.7899c-.7701 0-1.395.6249-1.395 1.395 0 .7706.6249 1.395 1.395 1.395h2.7899Z" fill="var(--testimonials-list-item-thumbnail-icon-accent-color)"/>
    </symbol>

    <symbol id="icon-diagram">
      <path d="M32.6496 32.7351h2.3321v10.4945h-2.3321V32.7351ZM41.978 37.3993h2.3321v5.8303H41.978v-5.8303ZM23.3211 40.8975h2.3321v2.3321h-2.3321v-2.3321ZM16.3248 39.7314h2.3321v3.4981h-2.3321v-3.4981Z" fill="var(--testimonials-list-item-thumbnail-icon-accent-color)"/>
      <path d="M3.49817 61.8865H59.4689c1.9318 0 3.4981-1.5663 3.4981-3.4982v-4.6642c0-1.9319-1.5663-3.4982-3.4981-3.4982h-1.1661V21.1468l6.6234-6.2744c1.5373.7579 3.398.2978 4.404-1.0909 1.0067-1.3881.8655-3.2994-.3336-4.52469-1.1991-1.22527-3.1065-1.40804-4.5168-.43272-1.4097.97589-1.9108 2.82571-1.1865 4.37951l-4.9905 4.7309v-2.6903c0-1.9318-1.5663-3.4981-3.4982-3.4981H8.16239c-1.93185 0-3.49817 1.5663-3.49817 3.4981v34.9817H3.49817C1.56632 50.2259 0 51.7922 0 53.7241v4.6642c0 1.9319 1.56632 3.4982 3.49817 3.4982ZM66.4652 10.58c.6439 0 1.166.5221 1.166 1.1661 0 .6439-.5221 1.166-1.166 1.166-.644 0-1.1661-.5221-1.1661-1.166 0-.644.5221-1.1661 1.1661-1.1661ZM6.99634 15.2442c0-.6439.5221-1.166 1.16605-1.166H54.8046c.644 0 1.1661.5221 1.1661 1.166v4.8971l-2.3321 2.216v-4.781c0-.6439-.5221-1.166-1.1661-1.166h-41.978c-.64395 0-1.16605.5221-1.16605 1.166v29.1514c0 .644.5221 1.1661 1.16605 1.1661h41.978c.644 0 1.1661-.5221 1.1661-1.1661V25.5651l2.3321-2.2097v26.8705H6.99634V15.2442ZM17.4908 30.403c-1.5777-.0046-2.9629 1.0465-3.3825 2.5672-.4197 1.5208.23 3.1338 1.5868 3.9389 1.3562.8051 3.0842.6029 4.2178-.4942l4.0533 2.0337c.4709.2358 1.0419.1253 1.3921-.2681l8.6162-9.6934 8.4698 6.3466c.4544.3405 1.0886.3041 1.5009-.0859l7.3613-6.973v17.7869H11.6606V18.7424h39.6459v5.8195l-8.2501 7.8128-8.541-6.4031c-.4851-.3632-1.1678-.2949-1.5709.1577l-8.7346 9.8278-3.2653-1.6329c.0239-.1401.0387-.2813.0444-.4231 0-1.9318-1.5663-3.4981-3.4982-3.4981Zm1.1661 3.4981c0 .644-.5221 1.1661-1.1661 1.1661-.6439 0-1.166-.5221-1.166-1.1661 0-.6439.5221-1.166 1.166-1.166.644 0 1.1661.5221 1.1661 1.166Zm6.9963 18.6569h11.6606v1.1661c0 .6439-.5221 1.166-1.1661 1.166h-9.3284c-.644 0-1.1661-.5221-1.1661-1.166V52.558ZM2.33211 53.7241c0-.644.52211-1.1661 1.16606-1.1661H23.3211v1.1661c0 1.9318 1.5663 3.4982 3.4982 3.4982h9.3284c1.9319 0 3.4982-1.5664 3.4982-3.4982V52.558h19.823c.6439 0 1.166.5221 1.166 1.1661v4.6642c0 .644-.5221 1.1661-1.166 1.1661H3.49817c-.64395 0-1.16606-.5221-1.16606-1.1661v-4.6642Z" fill="var(--testimonials-list-item-thumbnail-icon-main-color)"/>
    </symbol>

    <symbol id="icon-astronaut">
      <path d="M69.9433 9.8964c-.1377-.42124-.5017-.72913-.9415-.79339l-4.179-.60786-1.8702-3.78703c-.392-.79804-1.6999-.79804-2.0918 0l-1.8702 3.78703-4.1792.608c-.4398.06412-.8038.37106-.9427.79339-.1364.42236-.0234.88666.2952 1.19586l3.0252 2.9483-.7139 4.1627c-.0747.4375.105.8797.4632 1.1411.3628.2637.8364.2963 1.2296.0886l3.7381-1.9659 3.7381 1.9659c.1704.0898.3582.1341.5437.1341.2415 0 .4831-.0746.6861-.2228.3593-.2613.539-.7036.4632-1.1411l-.7139-4.1628 3.0252-2.9482c.3169-.3104.4313-.7736.2948-1.1959Zm-5.3877 2.9027c-.2741.2672-.4001.6545-.3348 1.0325l.4177 2.4372-2.1886-1.1503c-.1704-.0899-.357-.1342-.5438-.1342-.1866 0-.3721.0443-.5437.1342l-2.1888 1.1503.4177-2.4372c.0654-.378-.0607-.7641-.3348-1.0325l-1.7722-1.7266 2.4477-.3559c.3804-.0548.7082-.294.8786-.6382l1.0943-2.21668 1.0943 2.21668c.1704.3441.4982.5834.8786.6382l2.4477.3559-1.7699 1.7266ZM57.167 44.8923h-2.3334v2.3334h2.3334v-2.3334ZM57.167 49.5591h-2.3334v2.3334h2.3334v-2.3334ZM59.5004 47.2257H57.167v2.3334h2.3334v-2.3334ZM54.8337 47.2257h-2.3334v2.3334h2.3334v-2.3334ZM49.0002 57.7259h-2.3334v2.3334h2.3334v-2.3334ZM49.0002 62.3926h-2.3334v2.3334h2.3334v-2.3334ZM51.3337 60.0593h-2.3335v2.3334h2.3335v-2.3334ZM46.6668 60.0593h-2.3334v2.3334h2.3334v-2.3334ZM35 53.0592h-2.3334v2.3334H35v-2.3334ZM35 57.7259h-2.3334v2.3334H35v-2.3334ZM37.3334 55.3925H35v2.3334h2.3334v-2.3334ZM32.6666 55.3925h-2.3334v2.3334h2.3334v-2.3334ZM12.833 13.3918h-2.3334v2.3334h2.3334v-2.3334ZM12.833 18.0587h-2.3334v2.3334h2.3334v-2.3334ZM15.1663 15.7253h-2.3334v2.3334h2.3334v-2.3334ZM10.4996 15.7253H8.1662v2.3334h2.3334v-2.3334Z" fill="var(--testimonials-list-item-thumbnail-icon-accent-color)"/>
      <path d="M54.0635 30.9738c-.6287-.8482-1.5516-1.3941-2.5993-1.5412-1.0523-.1493-2.0907.1271-2.9307.77l-2.7383 2.0988-.0012.0012-4.1511 3.0999-2.9704-1.183c5.2967-2.3765 8.9987-7.6745 8.9987-13.8253 0-8.3628-6.831-15.16681-15.2276-15.16681S17.2162 12.0314 17.2162 20.3942c0 3.0311.9064 5.8498 2.45 8.2216l-6.0458-.0525h-.0105c-.0187 0-.0338.0093-.0513.0105-.1155.0047-.2287.0281-.3395.0677-.028.0105-.0571.0164-.0839.0291-.014.0059-.028.007-.042.014l-7.07242 3.4918c-.00123 0-.00232 0-.00232.0011l-4.14183 1.9918c-.04553.0198-.09215.0466-.13768.077C.0880496 35.3452-.474284 37.5036.429989 39.2676c.481804.938 1.301991 1.6288 2.310041 1.9449.38856.1212.78518.1808 1.17949.1808.63356 0 1.26125-.1551 1.8363-.4619l3.03575-1.6147 4.95253-2.5574 2.9681-.0175L4.80848 48.5884c-.0011.0012-.00233.0012-.00356.0023L1.8765 51.5074c-.69181.6884-1.07217 1.6018-1.07217 2.5761 0 .973.38036 1.8888 1.07217 2.5784.71053.707 1.64502 1.0617 2.57951 1.0617.93572 0 1.86897-.3547 2.58184-1.0617l2.87469-2.8631 3.80806-2.8432 1.9706 1.9623-3.8536 3.8373c-.0011.0012-.0024.0012-.0036.0023l-2.92841 2.9166c-.69181.6884-1.07216 1.6019-1.07216 2.5761 0 .9731.38035 1.8888 1.07216 2.5785.71054.7069 1.64621 1.0616 2.58071 1.0616.9345 0 1.8702-.3547 2.5819-1.0616l2.9295-2.9167 4.6865-4.6667c.0012-.0012.0012-.0023.0023-.0036l2.2086-2.1875-.0082-.0082c.014-.0139.0338-.0187.0479-.0338l11.3005-12.3773 7.5928 1.0804c.0548.0082.1096.0116.1645.0116.1412 0 .2777-.0338.4095-.084.0385-.0139.0723-.0326.1085-.0512.042-.0211.0863-.0327.1261-.0595l7.0292-4.6667c.0257-.0175.0397-.0455.0641-.0641.028-.0222.0631-.0315.0886-.0561l2.7813-2.6052c1.4472-1.356 1.6467-3.5773.4636-5.1663ZM4.66027 38.8722c-.37913.203-.80966.2438-1.22146.1132-.40839-.1271-.73966-.4061-.9334-.7829-.35233-.686-.1482-1.5214.46895-1.9728l2.8736-1.3826.69181 2.0219.29053.8493-2.17003 1.1539Zm7.64993-3.9981-3.38684 1.75-.55877-1.6334-.40128-1.1737 4.43349-2.1888-.0866 3.2459Zm33.03-14.4822c0 2.009-.4795 3.9038-1.3102 5.5989l-9.1468-4.1546c-.0957-1.2541-.7466-2.352-1.7243-3.0357l3.2026-10.63197c5.2011 1.65445 8.9787 6.50667 8.9787 12.22337Zm-25.7883 0c0-7.076 5.7844-12.83356 12.8942-12.83356.553 0 1.0943.04662 1.6298.1143L30.9434 18.0714c-.042-.0013-.0817-.0129-.1249-.0129-2.2587 0-4.0963 1.8317-4.0963 4.0834s1.8376 4.0835 4.0963 4.0835c1.519 0 2.8315-.8388 3.5397-2.0663l8.4491 3.8385c-2.3509 3.164-6.1135 5.2279-10.3614 5.2279-7.1096 0-12.894-5.7576-12.894-12.8336Zm13.0295 1.75c0 .9649-.7911 1.7501-1.7629 1.7501-.9718 0-1.7628-.7852-1.7628-1.7501 0-.9648.791-1.75 1.7628-1.75.9718 0 1.7629.7852 1.7629 1.75ZM5.39186 55.0075c-.5168.5121-1.3534.511-1.86897.0012-.24856-.2486-.38501-.5763-.38501-.9252 0-.3477.13645-.6755.38501-.9216l2.10454-2.0967 1.86201 1.854-2.09758 2.0883Zm7.03034 8.1668c-.5168.5122-1.3545.5134-1.8702.0013-.2486-.2486-.385-.5763-.385-.9252 0-.3477.1364-.6756.385-.9217l2.1059-2.0977.8809.8763.9823.9777-2.0989 2.0893Zm7.6162-7.5881c-.0013.0011-.0024.0011-.0036.0023l-3.8606 3.8501-.8809-.8763-.9823-.9777 3.857-3.8395v-.0011c.0013-.0012.0023-.0012.0036-.0023.0875-.0875.1423-.1925.196-.2963.0152-.0303.0443-.056.0572-.0875.0362-.0898.042-.1866.056-.2812.007-.0538.0304-.1038.0304-.1588 0-.0782-.028-.1539-.0443-.231-.014-.07-.014-.1412-.0409-.2088-.0443-.1096-.1202-.2064-.1995-.301-.0221-.0257-.0303-.0584-.0548-.0829h-.0012c-.0012-.0011-.0012-.0036-.0023-.0046l-3.5153-3.5001c-.0373-.0373-.0851-.0525-.1271-.0839-.0618-.0479-.1213-.0922-.1902-.1261-.0664-.0327-.1341-.0525-.2041-.0712-.0747-.0211-.147-.0374-.2252-.0432-.0712-.0047-.1377.0023-.2088.0105-.0782.0093-.1516.0198-.2275.0443-.0735.0234-.1388.0595-.2064.098-.0432.0245-.0922.0327-.1331.063l-3.87914 2.8958-1.97056-1.9624 5.2478-5.2197 9.5388 9.3814-2.029 2.0102Zm14.9161-15.349c-.0338-.0046-.0654.0082-.0991.0059-.0852-.0046-.1668.0012-.252.0152-.0665.0116-.1295.0245-.1925.0466-.0747.0257-.1423.0607-.2113.1027-.0653.0396-.1248.0816-.1819.1341-.0281.0245-.0618.0362-.0875.0641L23.6527 51.8621l-9.4676-9.3114 6.1974-6.1648c.4562-.455.4586-1.1935.0035-1.6509-.2298-.2298-.5319-.343-.8341-.3418v-.0011l-4.8534.0292.0607-3.5164 6.7901.0584c2.7673 2.8304 6.6267 4.5956 10.8968 4.5956.9566 0 1.89-.0991 2.7988-.2684.0875.07.1737.1413.2835.1856l5.2712 2.1.3336 1.659.3896 1.9366-6.5683-.9345Zm8.8399.3897-.6848-3.4079 3.164-2.3626.8284 1.099 1.2425 1.6497-4.5501 3.0218Zm8.2111-6.1928-1.8329 1.7174-2.037-2.7044 1.8188-1.3941c.3395-.2613.7677-.3675 1.1877-.3127.4223.0595.7957.28 1.05.6218.4738.6382.3932 1.5284-.1866 2.072Z" fill="var(--testimonials-list-item-thumbnail-icon-main-color)"/>
      <path d="m29.7545 40.5651-4.6877-4.6667c-.4538-.4538-1.1913-.4538-1.6463 0l-4.6865 4.6667c-.2193.2205-.343.5168-.343.8271 0 .3104.1225.6079.343.8272l4.6865 4.6667c.2275.2263.5263.3395.8238.3395s.5961-.1132.8225-.3395l4.6877-4.6667c.2193-.2193.3442-.5168.3442-.8272 0-.3103-.1238-.6078-.3442-.8271Zm-5.5102 3.8477-3.0334-3.0206 3.0334-3.0205 3.0345 3.0205-3.0345 3.0206ZM37.5468 11.0923l-.5635 2.2658c.1552.0385 3.8011.9882 3.8011 4.7006h2.3334c-.0001-4.4126-3.6436-6.4869-5.571-6.9664ZM43.1178 20.3919h-2.3334v2.3334h2.3334v-2.3334Z" fill="var(--testimonials-list-item-thumbnail-icon-main-color)"/>
    </symbol>

    <symbol id="icon-facebook" viewBox="0 0 32 32">
      <path d="M19 6h5V0h-5c-3.86 0-7 3.14-7 7v3H8v6h4v16h6V16h5l1-6h-6V7c0-.542.458-1 1-1z"/>
    </symbol>

    <symbol id="icon-instagram" viewBox="0 0 32 32">
      <path d="M16 2.881c4.275 0 4.781.019 6.462.094 1.563.069 2.406.331 2.969.55.744.288 1.281.638 1.837 1.194.563.563.906 1.094 1.2 1.838.219.563.481 1.412.55 2.969.075 1.688.094 2.194.094 6.463s-.019 4.781-.094 6.463c-.069 1.563-.331 2.406-.55 2.969-.288.744-.637 1.281-1.194 1.837-.563.563-1.094.906-1.837 1.2-.563.219-1.413.481-2.969.55-1.688.075-2.194.094-6.463.094s-4.781-.019-6.463-.094c-1.563-.069-2.406-.331-2.969-.55-.744-.288-1.281-.637-1.838-1.194-.563-.563-.906-1.094-1.2-1.837-.219-.563-.481-1.413-.55-2.969-.075-1.688-.094-2.194-.094-6.463s.019-4.781.094-6.463c.069-1.563.331-2.406.55-2.969.288-.744.638-1.281 1.194-1.838.563-.563 1.094-.906 1.838-1.2.563-.219 1.412-.481 2.969-.55 1.681-.075 2.188-.094 6.463-.094zM16 0c-4.344 0-4.887.019-6.594.094-1.7.075-2.869.35-3.881.744-1.056.412-1.95.956-2.837 1.85-.894.888-1.438 1.781-1.85 2.831C.444 6.538.169 7.7.094 9.4.019 11.113 0 11.656 0 16s.019 4.887.094 6.594c.075 1.7.35 2.869.744 3.881.413 1.056.956 1.95 1.85 2.837.887.887 1.781 1.438 2.831 1.844 1.019.394 2.181.669 3.881.744 1.706.075 2.25.094 6.594.094s4.888-.019 6.594-.094c1.7-.075 2.869-.35 3.881-.744 1.05-.406 1.944-.956 2.831-1.844s1.438-1.781 1.844-2.831c.394-1.019.669-2.181.744-3.881.075-1.706.094-2.25.094-6.594s-.019-4.887-.094-6.594c-.075-1.7-.35-2.869-.744-3.881-.394-1.063-.938-1.956-1.831-2.844-.887-.887-1.781-1.438-2.831-1.844-1.019-.394-2.181-.669-3.881-.744-1.712-.081-2.256-.1-6.6-.1z"/>
      <path d="M16 7.781c-4.537 0-8.219 3.681-8.219 8.219s3.681 8.219 8.219 8.219 8.219-3.681 8.219-8.219c0-4.537-3.681-8.219-8.219-8.219zm0 13.55c-2.944 0-5.331-2.387-5.331-5.331s2.387-5.331 5.331-5.331c2.944 0 5.331 2.387 5.331 5.331S18.944 21.331 16 21.331zM26.462 7.456c0 1.06-.859 1.919-1.919 1.919s-1.919-.859-1.919-1.919.859-1.919 1.919-1.919 1.919.859 1.919 1.919z"/>
    </symbol>

    <symbol id="icon-twitter" viewBox="0 0 32 32">
      <path d="M32 7.075c-1.175.525-2.444.875-3.769 1.031 1.356-.813 2.394-2.1 2.887-3.631-1.269.75-2.675 1.3-4.169 1.594C25.749 4.794 24.043 4 22.155 4c-3.625 0-6.563 2.938-6.563 6.563 0 .512.056 1.012.169 1.494-5.456-.275-10.294-2.888-13.531-6.862-.563.969-.887 2.1-.887 3.3 0 2.275 1.156 4.287 2.919 5.463-1.075-.031-2.087-.331-2.975-.819v.081c0 3.181 2.263 5.838 5.269 6.437-.55.15-1.131.231-1.731.231-.425 0-.831-.044-1.237-.119.838 2.606 3.263 4.506 6.131 4.563-2.25 1.762-5.075 2.813-8.156 2.813-.531 0-1.05-.031-1.569-.094 2.913 1.869 6.362 2.95 10.069 2.95 12.075 0 18.681-10.006 18.681-18.681 0-.287-.006-.569-.019-.85 1.281-.919 2.394-2.075 3.275-3.394z"/>
    </symbol>

    <symbol id="icon-linkedin" viewBox="0 0 32 32">
      <path d="M12 12h5.535v2.837h.079c.77-1.381 2.655-2.837 5.464-2.837C28.92 12 30 15.637 30 20.367V30h-5.769v-8.54c0-2.037-.042-4.657-3.001-4.657-3.005 0-3.463 2.218-3.463 4.509V30H12V12zM2 12h6v18H2V12zM8 7c0 1.657-1.343 3-3 3S2 8.657 2 7s1.343-3 3-3 3 1.343 3 3z"/>
    </symbol>

    <symbol id="client-icon-company-01" viewBox="0 0 41 48">
      <path d="m6 .713135 7.0078 6.634125L0 7.3396v32.1873h34V27.2202l7 6.6267V.713135H6ZM33.6924 26.4415 13.8226 7.63109h19.8698V26.4415Zm-6.1693 8.3772H5.38008V13.1711H6.9453v20.1817h20.5778v1.4659Zm-16.9142 8.9936-.81788 1.6845-.81788-1.6845h-.68603l1.19385 2.246v1.3086h.62014v-1.3086l1.1914-2.246h-.6836Zm1.0278 3.5546.2881-.8276h1.377l.2905.8276h.6445l-1.3452-3.5546h-.5542l-1.3428 3.5546h.6421Zm.9766-2.8002.5151 1.4746h-1.0303l.5152-1.4746Zm3.2568 1.3891c-.0895.1367-.1343.2873-.1343.4517 0 .2995.105.5428.315.73.2116.1855.4931.2783.8447.2783s.6543-.0952.9082-.2857l.2002.2368h.6885l-.5225-.6176c.2051-.28.3076-.6389.3076-1.0767h-.5151c0 .2393-.0496.4566-.1489.6519l-.6861-.8106.2417-.1758c.1709-.1237.2938-.2474.3687-.3711.0749-.1253.1123-.262.1123-.4101 0-.2246-.083-.4126-.249-.564-.1644-.153-.376-.2295-.6348-.2295-.2865 0-.5143.0814-.6836.2442-.1693.1611-.2539.3808-.2539.6591 0 .114.0269.232.0806.3541.0553.122.1522.2701.2905.4443-.2637.1888-.4403.3524-.5298.4907Zm1.604.7861c-.1741.1335-.3613.2002-.5615.2002-.1774 0-.319-.0512-.4248-.1538-.1058-.1025-.1587-.236-.1587-.4004 0-.1904.0977-.3597.293-.5078l.0757-.0537.7763.9155Zm-.6372-1.5747c-.1676-.2067-.2515-.3784-.2515-.5151 0-.1188.0342-.2173.1026-.2954.0683-.0781.1603-.1172.2759-.1172.1074 0 .1961.0334.2661.1001.07.0651.105.144.105.2368 0 .14-.0505.2547-.1514.3443l-.0757.061-.271.1855Zm5.7861 1.9312c.2442-.2132.3842-.5095.42-.8887h-.6153c-.0325.2539-.1098.4354-.2319.5445-.1221.109-.3044.1635-.5469.1635-.2653 0-.4671-.1009-.6054-.3027-.1368-.2018-.2051-.4948-.2051-.8789v-.315c.0032-.3792.0765-.6665.2197-.8618.1449-.1969.3516-.2954.6201-.2954.2311 0 .4061.057.5249.1709.1205.1123.1953.2962.2246.5518h.6153c-.0391-.389-.1783-.6901-.4175-.9033-.2393-.2133-.555-.3199-.9473-.3199-.2913 0-.5485.0692-.7715.2075-.2213.1384-.3914.3353-.5102.5909-.1188.2555-.1782.5509-.1782.8862v.332c.0048.3272.0659.6145.1831.8618.1172.2474.2832.4387.498.5738.2165.1334.4663.2002.7495.2002.4053 0 .73-.1058.9741-.3174Zm3.6304-.4981c.1205-.2636.1807-.5696.1807-.9179v-.1978c-.0016-.3467-.0635-.6502-.1856-.9106-.122-.2621-.2954-.4623-.52-.6006-.223-.14-.4793-.21-.769-.21s-.5469.0708-.7715.2124c-.223.14-.3963.3426-.52.6079-.1221.2653-.1831.5713-.1831.918v.2002c.0016.3402.0634.6405.1855.9009.1237.2604.2979.4614.5225.603.2262.14.4834.21.7715.21.2913 0 .5485-.07.7714-.21.2246-.1416.3972-.3434.5176-.6055Zm-.6616-2.0092c.1497.2099.2246.5118.2246.9057v.1856c0 .4004-.0741.7047-.2222.9131-.1464.2083-.3564.3125-.6298.3125-.2702 0-.4818-.1067-.6348-.3199-.1514-.2132-.2271-.5151-.2271-.9057v-.2051c.0033-.3825.0798-.6779.2295-.8862.1514-.21.3605-.315.6275-.315.2734 0 .4842.105.6323.315Z" />
    </symbol>

    <symbol id="client-icon-company-02" viewBox="0 0 40 53">
      <path d="M17.1136 3.64766h-.1366c-.2099-.01272-.4199-.01781-.6299-.02289h-.4553c-.3972 0-.802.01017-1.2042.03051-.0303-.0022-.0607-.0022-.091 0-3.6444.20649-7.21489 1.11737-10.51611 2.68278l-.43259.20852V28.6877l1.01189-.3433c.88794-.3051 1.83405-.5798 2.81306-.8341 2.64645-.6794 5.36385-1.0404 8.09515-1.0756v2.9091c-.3618.0025-.7134.0127-1.065.0305h-.0835c-2.102.1153-4.1878.4355-6.22821.9561-2.58413.647-5.07696 1.6184-7.419684 2.8913V4.82502C3.20469 3.40588 5.82533 2.34001 8.55557 1.6591 10.9527 1.04019 13.4169.722442 15.8918.713135h.4275c.511.012714 1.0094.035601 1.4774.071201 1.233.086575 2.4561.281424 3.6554.582324v2.86332c-1.1647-.27134-2.3489-.44989-3.5416-.53401-.0242-.00205-.0484-.00411-.0726-.00618-.2468-.02105-.4939-.04213-.7243-.04213Zm5.0392 2.92686c.6349.04831 1.2927.0712 1.958.0712 2.6017-.00951 5.1923-.34175 7.7131-.98919 2.5829-.64943 5.0747-1.62162 7.4172-2.89383v27.8906c-2.4344 1.4183-5.0558 2.4842-7.7865 3.166-2.3975.6165-4.8615.9334-7.3362.9434-1.8751.0151-3.7447-.2053-5.5654-.6561V6.03542c.43.09918.8727.19072 1.323.26701.7387.1246 1.5179.21614 2.2768.27209Zm14.1943.21615-1.0119.34075c-.931.31277-1.8695.59249-2.8131.8417-2.7472.70597-5.5707 1.06811-8.4063 1.07819-.6602 0-1.2673-.0178-1.8542-.05594l-.807-.0534V31.7188l.6931.0611c.6426.0559 1.3054.0839 1.9732.0839 2.2335-.0095 4.4572-.2974 6.6203-.857 1.7811-.4468 3.514-1.0694 5.1733-1.8589l.4326-.2085V6.79067ZM2.73713 42.9255c-.14547-.1509-.32084-.2693-.51477-.3478-.19392-.0784-.40207-.115-.61095-.1074-.22262-.0029-.4436.0386-.650143.1221-.189366.0754-.3615.1888-.505945.3331-.142871.1448-.25403.3181-.326334.5086-.0793088.1997-.1188455.4131-.1163675.6281v3.794c-.00904767.2674.0419677.5333.1492535.7782.089559.1944.218851.3677.379459.5085.15162.1277.329645.2198.521127.2696.18448.0518.37509.0784.56665.0788.2113.0021.42042-.043.6122-.1322.18964-.083.36146-.2022.50594-.3509.14089-.1474.25327-.3199.3314-.5086.08108-.1913.1224-.3973.12142-.6052v-.4247h-.99165v.3382c.00295.1155-.01682.2304-.05818.3382-.0323.0808-.08147.1536-.1442.2136-.06143.0497-.13188.0868-.20743.1094-.06697.0223-.13691.0343-.20744.0356-.08854.0103-.17821-.0031-.25995-.0388-.08174-.0358-.15264-.0925-.20552-.1647-.09348-.1524-.139305-.3296-.131546-.5085v-3.5372c-.006152-.1962.035536-.3909.121426-.5671.05148-.0801.12432-.144.2102-.1845.08588-.0404.18135-.0558.27551-.0444.08547-.003.17041.0148.24752.052.0771.0372.14408.0927.19518.1616.11097.1457.16899.3252.16443.5086v.3281h.98153v-.3866c.002-.227-.03922-.4522-.12142-.6637-.07326-.1987-.18602-.3804-.3314-.534ZM8.62892 42.8822c-.31621-.267-.7153-.4145-1.12826-.417-.20198.0009-.40228.037-.59196.1068-.19257.069-.37029.1743-.52365.3102-.16429.1477-.29537.3289-.38452.5315-.0999.2318-.14907.4824-.14419.7349v3.6389c-.00684.256.04239.5104.14419.7451.08975.1957.22099.3693.38452.5086.1516.1407.32963.2497.52365.3204.18968.0698.38998.1059.59196.1068.20203-.0004.40241-.0365.59196-.1068.19733-.0717.37933-.1804.5363-.3204.15818-.1419.28562-.3151.3744-.5086.1018-.2347.15103-.4891.14419-.7451v-3.6389c.00488-.2525-.04429-.5031-.14419-.7349-.08827-.2005-.21557-.3812-.3744-.5315Zm-.46294 4.9053c.00836.097-.00503.1946-.03918.2857-.03415.0911-.08819.1734-.15814.2407-.13098.1099-.29615.17-.46673.17-.17058 0-.33576-.0601-.46674-.17-.06995-.0673-.12399-.1496-.15814-.2407-.03415-.0911-.04753-.1887-.03918-.2857v-3.6389c-.00835-.097.00503-.1946.03918-.2857.03415-.0911.08819-.1733.15814-.2407.13098-.1098.29616-.17.46674-.17s.33575.0602.46673.17c.06995.0674.12399.1496.15814.2407.03415.0911.04754.1887.03918.2857v3.6389ZM16.3673 49.4125v-6.8887h-.9537l-1.2522 3.6465h-.0177l-1.2624-3.6465h-.9436v6.8887h.9841v-4.1907h.0177l.9638 2.9625h.4908l.9714-2.9625h.0177v4.1907h.9841ZM21.9581 43.0068c-.1516-.17-.3428-.2993-.5566-.3764-.2303-.0749-.4713-.111-.7134-.1068H19.226v6.8888h.9815V46.722h.5059c.3063.0139.611-.0508.8854-.1882.2232-.1239.4093-.3057.5389-.5264.1135-.1832.19-.3871.2251-.6001.0386-.2592.0564-.5211.0531-.7832.0096-.3308-.0227-.6615-.0961-.9841-.0655-.2384-.1899-.4562-.3617-.6332Zm-.506 2.1004c-.0042.1248-.0353.2471-.0911.3586-.0561.1059-.1448.1907-.2529.2416-.1454.065-.304.0946-.463.0864h-.4477v-2.342h.5059c.1524-.0075.3042.0222.4427.0865.1015.0582.1821.1472.2302.2543.0537.121.0829.2515.086.3839v.4578c0 .1602.0101.3255 0 .4729h-.0101ZM26.6077 42.5238h-.8045l-1.5178 6.8887h.9815l.2884-1.4799h1.3382l.2884 1.4799h.9816l-1.5558-6.8887Zm-.9057 4.4704.4832-2.4971h.0177l.4807 2.4971h-.9816ZM32.9497 46.6738h-.0177l-1.4824-4.15h-.9436v6.8887h.9815v-4.1424h.0203l1.5001 4.1424h.9233v-6.8887h-.9815v4.15ZM38.9476 42.5238l-.7893 2.7387h-.0202l-.7893-2.7387h-1.0397l1.3483 3.9771v2.9116h.9816v-2.9116l1.3483-3.9771h-1.0397ZM0 51.3577h.473058v1.3274h.321275v-1.3274h.470527v-.2721H0v.2721ZM3.97672 51.0856l-.61979 1.5995h.34152l.13154-.3637h.63749l.13661.3637h.3491l-.63496-1.5995h-.34151Zm-.0506.9663.21756-.5925.21755.5925h-.43511ZM7.90793 52.0953h.36934v.2059c-.10786.0865-.24151.134-.37946.1348-.06451.0036-.12895-.0083-.18793-.0349-.05897-.0265-.11077-.0669-.15105-.1177-.08481-.1217-.12666-.2685-.1189-.417 0-.356.15431-.534.46041-.534.08057-.008.16134.0132.2277.0598.06635.0467.1139.1157.13405.1945l.31622-.061c-.0683-.3128-.29345-.4705-.67797-.4705-.20566-.0055-.40564.0682-.55907.206-.08058.0796-.14293.1759-.18269.2821-.03976.1063-.05597.22-.04751.3333-.00932.2188.06386.4331.20491.6001.07836.0808.17322.1435.27803.1839.10482.0404.21709.0575.3291.05.25027.007.49341-.0842.67797-.2542v-.6307h-.69315v.2696ZM11.9226 51.0856h-.3238v1.5995h1.1206v-.2721h-.7968v-1.3274ZM15.3175 51.0856h-.3238v1.5995h.3238v-1.5995ZM18.6365 52.1536l-.6552-1.068h-.3137v1.5995h.301v-1.0452l.6426 1.0452h.3213v-1.5995h-.296v1.068ZM21.6368 51.9807h.7969v-.2721h-.7969v-.3509h.8576v-.2721H21.313v1.5995h1.2143v-.2721h-.8905v-.4323ZM28.9122 51.7162h-.6299v-.6306h-.3212v1.5995h.3212v-.6993h.6299v.6993h.3213v-1.5995h-.3213v.6306ZM31.9302 51.9807h.7994v-.2721h-.7994v-.3509h.8601v-.2721h-1.1814v1.5995h1.2117v-.2721h-.8904v-.4323ZM36.0233 51.9807c.2782-.0432.4199-.1907.4199-.445.0081-.068-.0022-.137-.0298-.1996-.0276-.0626-.0715-.1167-.1271-.1564-.1448-.0727-.3064-.1052-.468-.0941h-.6779v1.5995h.3213v-.6688h.0632c.0685-.0042.137.008.1998.0356.047.029.0861.0692.1139.117l.3491.5086h.3845l-.1948-.3128c-.0861-.1544-.2075-.286-.3541-.384Zm-.3239-.2212h-.2377v-.4018h.2529c.1102-.0089.2211.0041.3264.0382.0234.0206.0418.0463.054.0751.0122.0288.0177.06.0163.0913-.0015.0313-.0099.0618-.0247.0893-.0148.0276-.0356.0514-.0608.0698-.1056.0323-.2162.0453-.3264.0381ZM39.1096 51.9807h.7968v-.2721h-.7968v-.3509h.8601v-.2721h-1.1839v1.5995H40v-.2721h-.8904v-.4323Z"/>
    </symbol>

    <symbol id="client-icon-company-03" viewBox="0 0 45 42">
      <path d="M7.40628 41.1014c.01591.0004.03158.0035.0461.0092.01451.0057.02757.0139.03842.024l.21812.2085c-.16931.1687-.37857.3037-.61346.3957-.27507.1003-.57152.1487-.86974.1421-.28024.005-.55867-.0401-.81795-.1327-.23388-.085-.44401-.2126-.61618-.3743-.17571-.1677-.31105-.3643-.39806-.5781-.09529-.2384-.14234-.4893-.13905-.7416-.00387-.2539.04699-.5062.14995-.7439.09525-.2152.23892-.4117.42261-.5781.18617-.1631.40888-.2914.65435-.3767.26853-.0905.55449-.1355.84248-.1327.26751-.0056.5336.0354.7825.1208.21594.0814.41421.1944.58619.3341l-.18268.2227c-.01262.0157-.0283.0293-.04635.0403-.02155.0128-.0476.0187-.07361.0166-.0283-.0017-.05558-.0099-.07907-.0237l-.09815-.0593-.13633-.0758c-.05884-.0281-.11988-.0527-.18267-.0734-.08087-.0252-.16381-.045-.24811-.0592-.10699-.0172-.21567-.0251-.32445-.0237-.20738-.0023-.41318.0315-.60527.0995-.17915.0629-.34086.1582-.47441.2795-.13595.1291-.24072.2806-.30809.4455-.07679.1886-.11463.3875-.11179.5875-.00327.2032.03457.4053.11179.5971.06653.1634.16935.314.30264.443.12487.1203.27966.2143.45259.2749.17797.0641.369.0963.56165.0947.11129.0015.22253-.0048.33263-.0189.17979-.0191.35225-.0734.5044-.1588.07631-.0437.14835-.0928.21539-.1469.02803-.0232.06489-.0367.10361-.0379ZM13.7044 40.0538c.0034.2514-.0465.5011-.1473.7368-.0888.2137-.2288.4087-.4106.572-.1819.1634-.4015.2914-.6445.3756-.5338.1769-1.1239.1769-1.6577 0-.2413-.0855-.4595-.2138-.6407-.3767-.1817-.1663-.32271-.3629-.41439-.578-.1964-.4772-.1964-.9988 0-1.4759.09301-.2153.23379-.4125.41439-.5805.1827-.1577.4008-.2811.6407-.3624.5332-.1801 1.1246-.1801 1.6577 0 .2422.0855.4613.2137.6435.3767.1795.1646.3194.3587.4116.5709.1011.2372.151.4886.1473.7415Zm-.5726 0c.0043-.2011-.0307-.4013-.1036-.5923-.0611-.1635-.1604-.3143-.2917-.443-.1278-.1217-.2852-.2172-.4608-.2795-.3878-.1295-.8172-.1295-1.2051 0-.1755.0623-.3329.1578-.4607.2795-.1332.1279-.2335.2789-.2945.443-.1387.3857-.1387.7989 0 1.1846.0616.1639.1619.3148.2945.443.128.121.2854.2157.4607.2772.3886.1262.8166.1262 1.2051 0 .1754-.0615.3328-.1562.4608-.2772.1307-.129.23-.2797.2917-.443.0732-.1909.1082-.3912.1036-.5923ZM18.0013 40.6747l.0573.1327c.0218-.0474.0409-.0901.0627-.1327.0208-.0445.0444-.088.0709-.1303l1.3932-2.2006c.0273-.0379.0518-.0615.0791-.0687.037-.0098.0758-.0138.1145-.0118h.4117v3.5792h-.4881v-2.743c-.0026-.041-.0026-.0822 0-.1232l-1.4014 2.2314c-.0178.0334-.0462.0617-.082.0814-.0358.0198-.0774.0301-.1197.0299h-.0791c-.0425.0005-.0842-.0097-.12-.0295-.0358-.0198-.0642-.0482-.0818-.0818l-1.4423-2.2456v2.8733h-.4716v-3.5721h.4117c.0386-.002.0774.002.1145.0118.0338.0146.0607.0389.0763.0687l1.4232 2.203c.028.0407.0517.0835.0709.1279ZM23.2443 40.4969v1.3407h-.5453v-3.5744h1.216c.2296-.0038.4585.0225.6789.0781.1765.0435.3402.1194.4799.2227.1211.0968.2145.2168.2726.3506.0644.1458.0959.301.0927.4571.0024.1568-.0319.3123-.1008.4572-.0656.1371-.1663.2595-.2945.3577-.1399.1075-.3043.1883-.4826.2368-.2123.059-.4343.087-.6571.0829l-.6598-.0094Zm0-.3838h.6598c.1434.0017.286-.0167.4226-.0544.1127-.033.2166-.0854.3054-.154.0819-.0656.1454-.1466.1854-.2369.0446-.0955.0669-.1977.0654-.3008.0064-.0994-.0123-.1987-.0547-.2912-.0423-.0924-.1074-.1758-.1906-.2441-.2083-.1413-.47-.2098-.7335-.1919h-.6598v1.4733ZM30.5731 41.8424h-.4308c-.0432.0014-.0857-.0103-.12-.0332-.0309-.0223-.0552-.0507-.0709-.0829l-.3708-.8647h-1.8621l-.3845.8647c-.0141.0316-.0376.0594-.0681.0806-.0347.0242-.0782.0368-.1227.0355h-.4308l1.6359-3.5796h.5671l1.6577 3.5796Zm-2.6992-1.329h1.5377l-.6489-1.457c-.0496-.1096-.0906-.222-.1227-.3364l-.0627.1872c-.0191.0568-.0409.109-.06.1516l-.6434 1.4546ZM32.9288 38.2795c.0326.0155.0606.0374.0818.0639l2.3856 2.6983V38.2629h.4881v3.5795h-.2727c-.0387.001-.0771-.0063-.1118-.0213-.0336-.0171-.0633-.0396-.0872-.0663l-2.3829-2.6959c.0026.041.0026.0821 0 .1232V41.8424h-.4881v-3.5795h.289c.0338-.0008.0673.0048.0982.0166ZM39.9031 40.4188v1.4214h-.5453v-1.4214L37.85 38.2631h.4881c.042-.0022.0836.0087.1172.0307.0297.023.0546.0503.0736.0806l.9434 1.3906c.0382.0592.0709.1137.0982.1658.0272.0521.049.1019.0681.1516l.0709-.154c.0265-.0563.0574-.1109.0927-.1634l.9297-1.4001c.0196-.0279.0434-.0534.0709-.0758.0324-.0245.0744-.0373.1173-.0355h.4935l-1.5105 2.1652ZM17.7314 32.2561c.2372.0261.4771.0474.7198.0664 3.6788-1.4299 6.791-3.7702 8.9474-6.7283 2.1565-2.9582 3.2616-6.403 3.1772-9.9038l-4.0542-3.5226c.8243 3.7273.4387 7.5804-1.1137 11.1281-1.5524 3.5478-4.2104 6.6502-7.6765 8.9602Z"/>
      <path d="m16.2837 32.0923.1091.0189c3.7038-2.3018 6.5277-5.5161 8.1065-9.2273 1.5787-3.7112 1.8396-7.7486.749-11.59l-5.7746-5.01717c2.3357 4.12407 3.2758 8.73947 2.7111 13.30947-.5647 4.57-2.6111 8.9068-5.9011 12.5061ZM35.8679 19.8265c-.9811 3.8466-3.3638 7.3158-6.7944 9.8924-1.0019.7566-2.0826 1.4307-3.2281 2.0135 2.7935-.7134 5.3611-1.9746 7.5048-3.6864 2.1438-1.7119 3.8064-3.8286 4.8598-6.187l-2.3421-2.0325Z"/>
      <path d="m34.9491 19.2601-3.3345-2.8972c-.0637 3.3031-1.1445 6.5311-3.13 9.3485-1.9855 2.8173-4.8032 5.1213-8.1603 6.6723h.0163c.7482-.0002 1.4956-.039 2.2385-.1161 3.1374-1.1126 5.9089-2.8827 8.0674-5.1524 2.1584-2.2697 3.6366-4.9683 4.3026-7.8551ZM16.7663 4.16091 12.7883.699951C9.23222 1.89391 6.1738 3.99283 4.01337 6.72203 1.85294 9.45122.69115 12.6835.680054 15.9959.693382 19.656 2.11126 23.2077 4.70929 26.0888c2.59802 2.8811 6.22781 4.9272 10.31481 5.8142 3.6484-3.862 5.7845-8.6343 6.0978-13.6232.3133-4.989-1.2125-9.93485-4.3556-14.11889ZM44.14 18.7273c-.0143-4.3425-2.0062-8.5035-5.5403-11.57412-3.5342-3.07061-8.3234-4.80119-13.3214-4.81369-2.3095-.00208-4.5994.3682-6.7535 1.09204L42.8804 24.5926c.834-1.8705 1.2611-3.8593 1.2596-5.8653Z"/>
    </symbol>

    <symbol id="client-icon-company-04" viewBox="0 0 85 42">
      <path d="M13.1462 13.1028h-.0029c-2.398 0-4.34203 1.7276-4.34203 3.8587v.0025c0 2.1311 1.94403 3.8587 4.34203 3.8587h.0029c2.398 0 4.342-1.7276 4.342-3.8587v-.0025c0-2.1311-1.944-3.8587-4.342-3.8587ZM45.195 11.8693c-.0068-2.96001-1.3327-5.79707-3.6876-7.89035-2.3549-2.09327-5.547-3.272278-8.8777-3.278999-3.3317.005377-6.5252 1.183789-8.8813 3.277209-2.3562 2.09342-3.6829 4.93125-3.6897 7.89214v16.3228s25.1335-2.4877 25.1363-16.3203v-.0025ZM0 33.5495c.00604098 2.0596.929149 4.0333 2.56761 5.4899 1.63846 1.4566 3.85907 2.2776 6.17657 2.2837 2.31702-.0061 4.53722-.8268 6.17552-2.2828 1.6384-1.456 2.5619-3.4291 2.5687-5.4883V22.1943S0 23.9266 0 33.5495Zm8.74418 2.0349c-.45288 0-.89559-.1193-1.27215-.3429-.37655-.2236-.67004-.5414-.84335-.9133-.17331-.3718-.21866-.781-.1303-1.1757.08835-.3948.30643-.7574.62667-1.042.32023-.2846.72823-.4784 1.17241-.5569.44418-.0785.90458-.0382 1.32299.1158.41845.154.77605.4149 1.02765.7495.2516.3346.3859.7281.3859 1.1306.0011.2678-.0573.5333-.1718.7811-.1146.2477-.2831.473-.4958.6627-.2128.1898-.46559.3404-.74396.4431-.27838.1028-.57683.1557-.87826.1557v-.0077ZM26.4177 34.4637h-1.6875v1.7432h-.8789v-4.2656h2.7773v.7119h-1.8984v1.1016h1.6875v.7089Zm4.2246-.2929c0 .4199-.0742.7881-.2227 1.1045-.1484.3164-.3613.5605-.6387.7324-.2753.1719-.5918.2578-.9492.2578-.3535 0-.6689-.085-.9463-.2549-.2773-.1699-.4922-.4121-.6445-.7265-.1523-.3164-.2295-.6797-.2314-1.0899v-.2109c0-.4199.0752-.7891.2255-1.1074.1524-.3204.3663-.5655.6416-.7354.2774-.1719.5938-.2578.9493-.2578.3554 0 .6709.0859.9463.2578.2773.1699.4912.415.6416.7354.1523.3183.2285.6865.2285 1.1044v.1905Zm-.8907-.1934c0-.4472-.08-.7871-.2402-1.0195-.1601-.2324-.3887-.3486-.6855-.3486-.295 0-.5225.1152-.6827.3457-.1601.2285-.2412.5644-.2431 1.0078v.208c0 .4355.0801.7734.2402 1.0136.1602.2403.3906.3604.6914.3604.2949 0 .5215-.1152.6797-.3457.1582-.2324.2383-.5703.2402-1.0137v-.208Zm3.7413 1.1104c0-.166-.0586-.293-.1758-.3809-.1172-.0898-.3281-.1836-.6328-.2812-.3047-.0997-.5459-.1973-.7237-.293-.4843-.2617-.7265-.6143-.7265-1.0576 0-.2305.0644-.4356.1933-.6153.1309-.1816.3174-.3232.5596-.4248.2441-.1015.5176-.1523.8203-.1523.3047 0 .5762.0557.8145.167.2382.1094.4228.2646.5537.4658.1328.2012.1992.4297.1992.6855h-.8789c0-.1953-.0615-.3466-.1846-.4541-.123-.1093-.2959-.164-.5185-.164-.2149 0-.3819.0459-.501.1377-.1192.0898-.1787.209-.1787.3574 0 .1387.0693.2549.208.3486.1406.0938.3467.1817.6181.2637.5.1504.8643.3369 1.0928.5596.2285.2226.3428.5.3428.832 0 .3691-.1397.6592-.419.8701-.2792.209-.6552.3135-1.1279.3135-.3281 0-.6269-.0596-.8965-.1787-.2695-.1211-.4756-.2861-.6181-.4951-.1407-.209-.211-.4512-.211-.7266h.8819c0 .4707.2812.7061.8437.7061.209 0 .3721-.042.4893-.126.1172-.0859.1758-.2051.1758-.3574Zm4.6904-2.4346h-1.3067v3.5537h-.8789v-3.5537h-1.289v-.7119h3.4746v.7119Zm3.0703 1.7051h-1.6875v1.1426h1.9805v.706h-2.8594v-4.2656h2.8535v.7119h-1.9746v1.0166h1.6875v.6885Zm2.3877.2871h-.7002v1.5615h-.8789v-4.2656h1.585c.5039 0 .8925.1123 1.166.3369.2734.2246.4101.542.4101.9521 0 .2911-.0634.5342-.1904.7295-.125.1934-.3154.3477-.5713.4629l.9229 1.7432v.041h-.9434l-.7998-1.5615Zm-.7002-.7119h.709c.2207 0 .3916-.0557.5127-.167.1211-.1133.1816-.2686.1816-.4658 0-.2012-.0576-.3594-.1728-.4747-.1133-.1152-.2881-.1728-.5244-.1728h-.7061v1.2803Zm5.3262.7705v1.5029h-.8789v-4.2656h1.664c.3203 0 .6016.0586.8438.1758.2441.1172.4316.2841.5625.5009.1308.2149.1963.46.1963.7354 0 .418-.1436.748-.4307.9902-.2852.2403-.6807.3604-1.1865.3604h-.7705Zm0-.7119h.7851c.2325 0 .4092-.0547.5303-.1641.123-.1094.1846-.2656.1846-.4687 0-.209-.0616-.378-.1846-.5069-.123-.1289-.293-.1953-.5098-.1992h-.8056v1.3389Zm5.5605.3662h-1.6875v1.1426h1.9805v.706h-2.8594v-4.2656h2.8535v.7119h-1.9746v1.0166h1.6875v.6885Zm4.0781-1.7051h-1.3066v3.5537h-.8789v-3.5537h-1.2891v-.7119h3.4746v.7119Zm3.0704 1.7051h-1.6875v1.1426h1.9804v.706h-2.8593v-4.2656h2.8535v.7119h-1.9746v1.0166h1.6875v.6885Zm2.3877.2871h-.7002v1.5615h-.8789v-4.2656h1.5849c.5039 0 .8926.1123 1.166.3369.2735.2246.4102.542.4102.9521 0 .2911-.0635.5342-.1904.7295-.125.1934-.3155.3477-.5713.4629l.9228 1.7432v.041h-.9433l-.7998-1.5615Zm-.7002-.7119h.7089c.2207 0 .3916-.0557.5127-.167.1211-.1133.1817-.2686.1817-.4658 0-.2012-.0576-.3594-.1729-.4747-.1133-.1152-.2881-.1728-.5244-.1728h-.706v1.2803Zm5.165 1.1543c0-.166-.0586-.293-.1758-.3809-.1172-.0898-.3281-.1836-.6328-.2812-.3047-.0997-.5459-.1973-.7236-.293-.4844-.2617-.7266-.6143-.7266-1.0576 0-.2305.0645-.4356.1934-.6153.1308-.1816.3173-.3232.5595-.4248.2442-.1015.5176-.1523.8203-.1523.3047 0 .5762.0557.8145.167.2383.1094.4229.2646.5537.4658.1328.2012.1992.4297.1992.6855h-.8789c0-.1953-.0615-.3466-.1845-.4541-.1231-.1093-.2959-.164-.5186-.164-.2148 0-.3818.0459-.501.1377-.1191.0898-.1787.209-.1787.3574 0 .1387.0693.2549.208.3486.1406.0938.3467.1817.6182.2637.5.1504.8642.3369 1.0928.5596.2285.2226.3427.5.3427.832 0 .3691-.1396.6592-.4189.8701-.2793.209-.6553.3135-1.1279.3135-.3282 0-.627-.0596-.8965-.1787-.2696-.1211-.4756-.2861-.6182-.4951-.1406-.209-.2109-.4512-.2109-.7266h.8818c0 .4707.2813.7061.8438.7061.2089 0 .372-.042.4892-.126.1172-.0859.1758-.2051.1758-.3574Z"/>
    </symbol>

    <symbol id="client-icon-company-05" viewBox="0 0 63 47">
      <path d="M4.7569 38.7352c.24368.2762.37348.622.36668.977.01243.2315-.03218.4627-.13054.6763-.09835.2136-.24793.4042-.43765.5578-.47338.3273-1.05984.4873-1.6517.4506H0v-6.1914h2.84423c.56143-.0342 1.1184.1112 1.57572.4113.18368.1408.32913.3187.42487.5197.09573.2011.13914.4197.1268.6388.01669.3415-.10047.6773-.33034.9467-.22069.246-.52568.4165-.86549.4839.38522.0644.73294.252.98111.5293Zm-3.40581-.9346h1.21565c.27629.0187.55069-.0543.773-.2057.09127-.0757.16229-.1697.20754-.2746.04526-.1049.06354-.2179.05343-.3303.00858-.112-.01008-.2243-.05464-.329-.04456-.1046-.1139-.1988-.20303-.2759-.22896-.1557-.51189-.2298-.79612-.2087H1.35109v1.6242Zm2.10757 2.3744c.09757-.0776.17426-.1747.22411-.2838.04985-.1091.07151-.2273.06329-.3454.00744-.1194-.01521-.2388-.06618-.3489-.05098-.1101-.12893-.2081-.22783-.2862-.23784-.1615-.53035-.2408-.82585-.2239H1.35109v1.7029h1.29163c.29073.0154.5785-.0604.81594-.2147ZM10.5709 41.3969l-1.58233-2.4197h-.59461v2.4197h-1.361v-6.1914h2.57665c.64949-.0415 1.29159.1469 1.79379.5263.3601.336.5774.7788.6125 1.2485.0351.4697-.1141.9355-.4209 1.3134-.3179.3334-.7522.5557-1.2289.6291l1.6847 2.4741h-1.4799Zm-2.17694-3.2636h1.11325c.77299 0 1.15949-.3125 1.15949-.9376.0079-.1276-.0133-.2554-.0622-.3752-.0489-.1197-.1245-.2289-.2219-.3205-.2443-.186-.55886-.2762-.87539-.251H8.38075l.01321 1.8843ZM18.0102 40.1506h-2.7121l-.479 1.2462H13.392l2.4908-6.1219h1.5427l2.4808 6.1219h-1.427l-.4691-1.2462Zm-.3634-.9376-.991-2.6133-.991 2.6133h1.982ZM27.3224 41.3969h-1.3511l-3.0292-4.2103v4.2103h-1.3478v-6.1915h1.3478l3.0292 4.2346v-4.2346h1.3511v6.1915ZM35.0326 39.9149c-.2794.4674-.705.8477-1.2223 1.0919-.5881.272-1.2408.406-1.8994.3902H29.506v-6.1915h2.4049c.6575-.0157 1.3093.1151 1.8994.3811.5172.2387.9433.6151 1.2223 1.0798.2781.5036.423 1.0599.423 1.6242s-.1449 1.1207-.423 1.6243Zm-1.546-.1482c.3856-.4113.5976-.9355.5976-1.4776 0-.542-.212-1.0662-.5976-1.4775-.4661-.3726-1.0739-.5617-1.6914-.5263h-.9381v4.0077h.9381c.6175.0353 1.2253-.1538 1.6914-.5263ZM18.8558.766724S36.2945 6.79486 35.9245 15.518v14.7542S18.4991 24.2411 18.8624 15.518L18.8558.766724ZM51.4603 26.8181c3.2935-2.0753 7.103-3.3607 11.0796-3.7385v-4.6187c-4.582 1.617-8.469 4.5489-11.0796 8.3572Z"/>
      <path d="M49.4816 28.2095c2.6957-4.9699 7.3689-8.8049 13.0584-10.7163V4.18469S37.705 12.7717 38.2303 25.1939v21.0062s1.1066-.3841 2.8475-1.104c0-.6714 0-1.3489.0793-2.0295.514-5.767 3.5083-11.111 8.3245-14.8571Z"/>
      <path d="M47.1197 36.0131c.1305-1.4568.4216-2.8979.8688-4.3011-2.9989 3.2351-4.8151 7.2494-5.1929 11.4786-.0364.3993-.0562.7985-.0661 1.2099 1.4105-.6201 3.0523-1.3944 4.7767-2.3048-.44-2.0009-.5702-4.0485-.3865-6.0826ZM48.1075 36.0887c-.1654 1.8403-.0621 3.6926.3072 5.5079 6.7852-3.7173 14.4094-9.4611 14.1154-16.4027v-.6049c-4.8477.4966-9.3833 2.437-12.9097 5.523-.8256 1.9124-1.3355 3.9267-1.5129 5.9767Z"/>
    </symbol>

    <symbol id="client-icon-company-06" viewBox="0 0 94 45">
      <path d="M47.425 21.4082c-.4431-.5898-.6551-1.2869-.6047-1.9886v-2.8832c0-.8838.2004-1.5555.6013-2.015.4008-.4595 1.0894-.6883 2.0655-.6863.9173 0 1.5684.1955 1.9534.5866.42.499.6243 1.1092.5775 1.7246v.6776h-1.6408v-.6864c.0058-.2246-.0101-.4493-.0476-.6716-.0236-.1521-.1062-.2927-.2344-.3989-.1685-.1145-.3807-.17-.5945-.1555-.2248-.0145-.4478.0441-.6251.1643-.1429.1177-.2382.2719-.2718.4399-.0471.2354-.0687.474-.0645.7128v3.4991c-.0259.3376.0465.6754.2106.9826.0816.1039.1949.1863.3275.2381.1325.0518.279.0709.4233.0552.2102.0149.4188-.042.5809-.1584.1337-.1146.2197-.2641.2446-.4253.0383-.2321.0554-.4665.051-.701v-.7098h1.6408v.6482c.0461.6416-.1532 1.2784-.5673 1.8126-.3771.4283-1.0192.6424-1.9636.6424-.9444 0-1.6579-.2288-2.0621-.704ZM54.2569 21.4376c-.4145-.4488-.6217-1.1029-.6217-1.9681v-3.0328c0-.8564.2072-1.5046.6217-1.9446.4144-.44 1.1075-.659 2.079-.657.9648 0 1.6545.219 2.0689.657.4145.44.6251 1.0882.6251 1.9446v3.0328c0 .8564-.2106 1.5134-.6319 1.9651-.4212.4517-1.1074.6776-2.0621.6776-.9546 0-1.6612-.2288-2.079-.6746Zm2.8434-.7274c.1484-.2811.216-.589.1971-.8975v-3.7133c.019-.3025-.0475-.6045-.1937-.8799-.0832-.1061-.1994-.1899-.3351-.2418-.1358-.0518-.2857-.0697-.4327-.0515-.1474-.0177-.2976.0003-.4338.0521-.1362.0518-.253.1353-.3373.2412-.1494.2746-.2171.577-.197.8799v3.7309c-.0207.3086.047.6168.197.8975.0956.0946.2137.1704.3461.2224.1324.0519.2762.0788.4217.0788.1454 0 .2892-.0269.4216-.0788.1324-.052.2505-.1278.3461-.2224v-.0176ZM61.0035 13.9236h1.7666l1.3283 5.5956 1.3589-5.5956h1.719l.1733 8.0767H66.079l-.1359-5.6132-1.3113 5.6132h-1.0192l-1.3589-5.6338-.1257 5.6338h-1.2841l.1596-8.0767ZM69.3302 13.9236h2.7517c1.5854 0 2.378.7644 2.378 2.2934 0 1.4644-.8345 2.1956-2.5037 2.1936h-.9376v3.5897H69.32l.0102-8.0767Zm2.3509 3.4518c.1678.0184.3382.0051.4995-.039.1613-.044.3096-.1178.4347-.2161.1948-.2728.2807-.5932.2446-.9121.0089-.2464-.0185-.4928-.0816-.7332-.0242-.0803-.0667-.1556-.125-.2216-.0584-.066-.1313-.1212-.2147-.1626-.2358-.0976-.4964-.142-.7575-.129h-.6591v2.4136h.6591ZM76.9094 13.9236h1.8243l1.8718 8.0767h-1.583l-.3703-1.8623h-1.6273l-.3805 1.8623h-1.6068l1.8718-8.0767Zm1.5593 5.2789-.6353-3.3902-.6352 3.3902h1.2705ZM82.1173 13.9236h1.189l2.2762 4.6073v-4.6073h1.4098v8.0767H85.861l-2.2897-4.8097v4.8097h-1.4574l.0034-8.0767ZM90.2945 18.9208l-1.8923-4.9859h1.5933l1.1551 3.2027 1.0837-3.2027h1.5593l-1.8685 4.9859v3.0795h-1.6306v-3.0795ZM50.0477 25.5316v.4224h-1.386v3.2819h-.581V25.954h-1.3928v-.4224h3.3598ZM54.3927 29.2362h-.4485c-.0455.0024-.0904-.0101-.1257-.0352-.0339-.0215-.0598-.051-.0747-.085l-.4009-.8799h-1.9228l-.4009.8799c-.0114.0368-.0323.0708-.0612.0997-.0355.0245-.0802.037-.1256.0352h-.4485l1.6986-3.7041h.5912l1.719 3.6894Zm-2.813-1.3755h1.6036l-.6795-1.5074c-.0501-.114-.0921-.2306-.1257-.349-.0238.0704-.0442.1378-.0645.1965l-.0612.1554-.6727 1.5045ZM57.3211 28.8724c.1064.0048.213.0048.3193 0 .0919-.0082.1828-.0229.2718-.044.0832-.0177.165-.0402.2446-.0675.0748-.0264.1495-.0587.2276-.0909v-.8331h-.6794c-.0168.0009-.0336-.0013-.0494-.0064-.0158-.005-.0302-.0128-.0423-.0229-.0112-.0083-.02-.0187-.0259-.0304-.0059-.0117-.0087-.0243-.0081-.0371v-.2845h1.3181v1.4197c-.1076.0664-.2212.1253-.3397.176-.1211.0516-.2473.0938-.3771.1261-.1389.0353-.281.0608-.4247.0763-.1647.0158-.3302.0236-.4959.0234-.293.0022-.5837-.0446-.8562-.1378-.2543-.0883-.4854-.22-.6794-.3872-.1891-.1689-.338-.3682-.4382-.5866-.1071-.2456-.1601-.5062-.1563-.7685-.0036-.264.0482-.5264.1529-.7744.0977-.2195.2469-.4193.4382-.5866.1939-.1667.4251-.2974.6795-.3843.2909-.0945.5996-.1412.9104-.1379.1582-.0001.3161.0107.4722.0323.1381.0194.2736.0509.4043.0939.1188.0385.2327.0877.3397.1466.1041.0579.203.1226.2956.1936l-.1631.2288c-.0128.0209-.0318.0385-.0551.0508-.0233.0124-.05.0192-.0774.0196-.0376-.001-.0741-.0112-.1053-.0293-.051-.0235-.1053-.0528-.1665-.088-.0722-.0391-.1484-.0725-.2276-.0997-.1012-.0351-.2058-.0626-.3125-.0822-.1423-.0226-.2868-.0334-.4315-.0322-.2241-.0022-.4466.0327-.6556.1026-.1891.0655-.3595.1656-.4994.2933-.1408.1332-.2484.29-.316.4606-.1517.4011-.1517.8336 0 1.2348.0744.1742.1901.3331.3398.4664.1393.1271.3084.2271.496.2933.216.0641.4449.089.6726.0734ZM62.7362 28.8136h1.8549v.4223h-2.4222v-3.7043h.5809l-.0136 3.282ZM66.5208 29.2359h-.581v-3.7043h.581v3.7043ZM68.6814 25.5492c.0345.017.0646.04.0883.0675l2.4833 2.7923c-.0033-.0439-.0033-.088 0-.132V25.517h.5062v3.7192h-.2921c-.0433.003-.0867-.0041-.1257-.0206-.0353-.0184-.0664-.0423-.0918-.0704l-2.4799-2.7894V29.2362h-.4858v-3.7046h.3024c.0328.0001.0652.0061.0951.0176ZM76.0364 25.5316v.4077h-2.0587v1.2231h1.668v.393h-1.668v1.2641h2.0587v.4077h-2.6566v-3.6956h2.6566ZM15.1617 2.65551l25.7951 6.32331V31.1368l-25.7951-6.3204V2.65551ZM13.5073.766724V25.8928l29.1006 7.1357V7.90538L13.5073.766724Z"/>
      <path d="M29.1039 44.6922 0 37.5505V12.4271l29.1039 7.1388v25.1263Z"/>
      <path d="M13.9897 2.37099 39.4484 8.615l-10.8269 9.3499-25.4621-6.247 10.8303-9.34691ZM13.5073.766724 0 12.4277l29.1039 7.1385L42.6078 7.90525 13.5073.766724ZM30.7414 43.2788l11.8664-10.2473-11.8664-2.9122v13.1595Z"/>
    </symbol>

    <symbol id="btn-close" width="13" height="13" viewBox="0 0 11 11">
      <path d="M11 1.10786L9.89214 0L5.5 4.39214L1.10786 0L0 1.10786L4.39214 5.5L0 9.89214L1.10786 11L5.5 6.60786L9.89214 11L11 9.89214L6.60786 5.5L11 1.10786Z" fill="black"/>
    </symbol>

    <symbol id="icon-sent" viewBox="0 0 24 24">
    <path d="M24 0 0 13.5l7.7 2.8 11.8-11-9 12V24l4.3-5 5.5 2L24 0Z"/>
    </symbol>

    <symbol id="icon-name" viewBox="0 0 12 12">
    <path d="M6 6C7.6575 6 9 4.6575 9 3C9 1.3425 7.6575 0 6 0C4.3425 0 3 1.3425 3 3C3 4.6575 4.3425 6 6 6ZM6 7.5C3.9975 7.5 0 8.505 0 10.5V11.25C0 11.6625 0.3375 12 0.75 12H11.25C11.6625 12 12 11.6625 12 11.25V10.5C12 8.505 8.0025 7.5 6 7.5Z" />
    </symbol>

    <symbol id="icon-phone" viewBox="0 0 14 14">
    <path d="M11.996 9.12256L10.1579 8.91269C9.71641 8.86203 9.28221 9.01401 8.97102 9.32519L7.63945 10.6568C5.59144 9.61466 3.91251 7.94296 2.87041 5.8877L4.20922 4.54888C4.5204 4.2377 4.67237 3.80349 4.62171 3.36205L4.41185 1.53836C4.325 0.807445 3.70988 0.257446 2.97173 0.257446H1.71976C0.902004 0.257446 0.221746 0.937708 0.272403 1.75547C0.655953 7.93572 5.59868 12.8712 11.7717 13.2548C12.5894 13.3054 13.2697 12.6252 13.2697 11.8074V10.5555C13.2769 9.82453 12.7269 9.2094 11.996 9.12256V9.12256Z" />
    </symbol>

    <symbol id="icon-mail" viewBox="0 0 16 12">
    <path d="M14 0H2C1.175 0 0.5075 0.675 0.5075 1.5L0.5 10.5C0.5 11.325 1.175 12 2 12H14C14.825 12 15.5 11.325 15.5 10.5V1.5C15.5 0.675 14.825 0 14 0ZM13.7 3.1875L8.3975 6.5025C8.1575 6.6525 7.8425 6.6525 7.6025 6.5025L2.3 3.1875C2.1125 3.0675 2 2.865 2 2.6475C2 2.145 2.5475 1.845 2.975 2.1075L8 5.25L13.025 2.1075C13.4525 1.845 14 2.145 14 2.6475C14 2.865 13.8875 3.0675 13.7 3.1875Z" />
    </symbol>

    <symbol id="icon-checkbox" viewBox="0 0 16 15">
    <path d="M14.2222 1.66667V13.3333H1.77778V1.66667H14.2222ZM14.2222 0H1.77778C0.8 0 0 0.75 0 1.66667V13.3333C0 14.25 0.8 15 1.77778 15H14.2222C15.2 15 16 14.25 16 13.3333V1.66667C16 0.75 15.2 0 14.2222 0Z" />
    </symbol>

    <symbol id="icon-checkbox-check" viewBox="0 0 16 15">
    <rect width="16" height="15" rx="2" fill="#2196F3"/>
    <path d="M3.95703 7.75166L3.88825 7.68604L3.81923 7.75141L2.93123 8.59258L2.85486 8.66492L2.93097 8.73753L6.42671 12.0724L6.49574 12.1382L6.56476 12.0724L14.069 4.91352L14.1449 4.84116L14.069 4.76881L13.1873 3.92764L13.1183 3.86183L13.0493 3.92761L6.49577 10.1735L3.95703 7.75166Z" fill="white" stroke="white" stroke-width="0.2"/>
    </symbol>

    <symbol id="btn-mobile-menu" viewBox="0 0 24 16">
    <path d="M0 2.7V0h24v2.7H0Zm0 6.6h24V6.7H0v2.6ZM0 16h24v-2.7H0V16Z"/>
    </symbol>

    <symbol id="btn-mobile-menu-close" viewBox="0 0 19 19">
    <path d="M18.6667 1.88L16.7867 0L9.33333 7.45334L1.88 0L0 1.88L7.45334 9.33333L0 16.7867L1.88 18.6667L9.33333 11.2133L16.7867 18.6667L18.6667 16.7867L11.2133 9.33333L18.6667 1.88Z" />
    </symbol>

    <symbol id="icon-vertical-line" viewBox="0 0 1 22">
    <line x1="0.5" x2="0.5" y2="22" stroke="#212121" stroke-opacity="0.2"/>
    </symbol>


    <symbol id="icon-logo" viewBox="0 0 24 24">
      <path d="M19.82 2H4.18C2.97602 2 2 2.97602 2 4.18V19.82C2 21.024 2.97602 22 4.18 22H19.82C21.024 22 22 21.024 22 19.82V4.18C22 2.97602 21.024 2 19.82 2Z"  stroke-width="2" stroke-linecap="round" stroke-linejoin="round"/>
      <path d="M7 2V22"  stroke-width="2" stroke-linecap="round" stroke-linejoin="round"/>
      <path d="M17 2V22"  stroke-width="2" stroke-linecap="round" stroke-linejoin="round"/>
      <path d="M2 12H22"  stroke-width="2" stroke-linecap="round" stroke-linejoin="round"/>
      <path d="M2 7H7"  stroke-width="2" stroke-linecap="round" stroke-linejoin="round"/>
      <path d="M2 17H7"  stroke-width="2" stroke-linecap="round" stroke-linejoin="round"/>
      <path d="M17 17H22"  stroke-width="2" stroke-linecap="round" stroke-linejoin="round"/>
      <path d="M17 7H22"  stroke-width="2" stroke-linecap="round" stroke-linejoin="round"/>
    </symbol>

    <symbol id="icon-search" viewBox="0 0 12 12">
      <path d="M5.5 9.5C7.70914 9.5 9.5 7.70914 9.5 5.5C9.5 3.29086 7.70914 1.5 5.5 1.5C3.29086 1.5 1.5 3.29086 1.5 5.5C1.5 7.70914 3.29086 9.5 5.5 9.5Z" stroke-linecap="round" stroke-linejoin="round"/>
      <path d="M10.5 10.5002L8.32495 8.3252"  stroke-linecap="round" stroke-linejoin="round"/>
    </symbol>

    <symbol id="hert" width="14" height="13" viewBox="0 0 14 13" fill="none" xmlns="http://www.w3.org/2000/svg">
      <path d="M7 12.88L6.02 11.9C2.38 8.68 0 6.51 0 3.85C0 1.68 1.68 0 3.85 0C5.04 0 6.23 0.56 7 1.47C7.77 0.56 8.96 0 10.15 0C12.32 0 14 1.68 14 3.85C14 6.51 11.62 8.68 7.98 11.9L7 12.88Z" fill="#FF6B08"/>
    </symbol>

    <symbol id="team-github" viewBox="0 0 32 32">
      <path d="M16 0.395c-8.836 0-16 7.163-16 16 0 7.069 4.585 13.067 10.942 15.182 0.8 0.148 1.094-0.347 1.094-0.77 0-0.381-0.015-1.642-0.022-2.979-4.452 0.968-5.391-1.888-5.391-1.888-0.728-1.849-1.776-2.341-1.776-2.341-1.452-0.993 0.11-0.973 0.11-0.973 1.606 0.113 2.452 1.649 2.452 1.649 1.427 2.446 3.743 1.739 4.656 1.33 0.143-1.034 0.558-1.74 1.016-2.14-3.554-0.404-7.29-1.777-7.29-7.907 0-1.747 0.625-3.174 1.649-4.295-0.166-0.403-0.714-2.030 0.155-4.234 0 0 1.344-0.43 4.401 1.64 1.276-0.355 2.645-0.532 4.005-0.539 1.359 0.006 2.729 0.184 4.008 0.539 3.054-2.070 4.395-1.64 4.395-1.64 0.871 2.204 0.323 3.831 0.157 4.234 1.026 1.12 1.647 2.548 1.647 4.295 0 6.145-3.743 7.498-7.306 7.895 0.574 0.497 1.085 1.47 1.085 2.963 0 2.141-0.019 3.864-0.019 4.391 0 0.426 0.288 0.925 1.099 0.768 6.354-2.118 10.933-8.113 10.933-15.18 0-8.837-7.164-16-16-16z"></path>
    </symbol>
    
  </defs>
</svg>
